<svg width="127" height="56" viewBox="0 0 127 56" fill="none" xmlns="http://www.w3.org/2000/svg">
<path d="M86.2552 18.4454V29.9393C86.2552 32.7302 88.6695 32.9908 92.9747 32.7302V41.5606C80.1872 42.8605 76.4696 39.0273 76.4696 29.9364V18.4425H71.251V9.09098H76.4696V2.92711L86.2552 0.00585938V9.09677H92.9747V18.4482L86.2552 18.4454Z" fill="black"/>
<path d="M121.756 41.6159C124.241 41.6159 126.256 39.6107 126.256 37.1371C126.256 34.6635 124.241 32.6582 121.756 32.6582C119.271 32.6582 117.256 34.6635 117.256 37.1371C117.256 39.6107 119.271 41.6159 121.756 41.6159Z" fill="#F18B1E"/>
<path d="M115.006 37.1367C115.006 35.4574 115.632 33.9201 116.659 32.7389C112.464 32.9792 110.116 32.6896 110.116 29.9363V18.4424H116.836V9.09091H110.116V0L100.331 2.92125V9.09091H95.1123V18.4424H100.331V29.9363C100.331 38.9925 104.022 42.8286 116.696 41.5721C115.646 40.3909 115.006 38.8361 115.006 37.1367Z" fill="black"/>
<path d="M70.9685 25.327C70.9685 15.521 63.9232 8.18457 54.3965 8.18457C44.0874 8.18457 37.042 15.6513 37.042 25.327C37.042 35.0028 43.9565 42.4695 55.115 42.4695C61.3139 42.4695 66.1397 40.1967 69.3366 35.7816L61.5088 31.2998C60.2027 32.7271 57.9192 33.7665 55.2459 33.7665C54.699 33.7665 54.1638 33.7404 53.6489 33.6797C50.4753 33.3728 46.8537 31.6704 46.8537 25.3241C46.8537 23.5696 47.133 22.1741 47.5897 21.0682C48.666 18.312 50.9524 16.818 54.3325 16.818C57.2676 16.818 60.2056 18.1817 61.247 21.9483H49.207C48.951 22.8922 48.8027 24.0068 48.8027 25.3241C48.8027 26.8933 49.0296 28.1701 49.4106 29.2211H70.5758C70.8376 27.9906 70.9685 26.6907 70.9685 25.327Z" fill="black"/>
<path d="M25.5723 9.09366V12.4058C23.4197 9.74218 20.2868 8.18457 16.0485 8.18457C6.78359 8.18457 0 15.7179 0 24.6785C0 33.6391 6.7865 41.1724 16.0485 41.1724C19.193 41.1724 21.7267 40.3154 23.7047 38.7868V29.7769C22.2997 31.3114 20.1908 32.2089 17.6804 32.2089C13.0494 32.2089 9.78558 29.1574 9.78558 24.6756C9.78558 20.1938 13.0465 17.1423 17.6804 17.1423C21.7819 17.1423 24.8072 19.5337 25.4472 23.1933C25.4472 23.1933 25.5664 23.616 25.5723 24.4585C25.5752 24.5308 25.5752 24.6032 25.5752 24.6756C25.5752 24.7161 25.5752 24.7567 25.5752 24.8001C25.5868 28.2685 25.6101 35.9089 25.5752 37.0525V39.9362C25.5752 44.5453 22.771 46.8846 18.204 46.8846C13.8988 46.8846 12.0051 45.0664 10.7659 42.7937L2.4144 47.5997C5.4164 52.924 11.0917 55.4573 17.8753 55.4573C26.5526 55.4573 35.0989 50.8482 35.0989 39.9391V9.09366H25.5723Z" fill="black"/>
</svg>
